<?xml version="1.0" encoding="UTF-8" standalone="no"?>
<!-- Created with Inkscape (http://www.inkscape.org/) -->

<svg
   width="59.346828mm"
   height="63.89373mm"
   viewBox="0 0 59.346828 63.89373"
   version="1.1"
   id="svg1"
   xml:space="preserve"
   inkscape:version="1.4.2 (ebf0e94, 2025-05-08)"
   sodipodi:docname="drawing.svg"
   inkscape:export-filename="ooo.svg"
   inkscape:export-xdpi="12.1"
   inkscape:export-ydpi="12.1"
   xmlns:inkscape="http://www.inkscape.org/namespaces/inkscape"
   xmlns:sodipodi="http://sodipodi.sourceforge.net/DTD/sodipodi-0.dtd"
   xmlns="http://www.w3.org/2000/svg"
   xmlns:svg="http://www.w3.org/2000/svg"><sodipodi:namedview
     id="namedview1"
     pagecolor="#ffffff"
     bordercolor="#000000"
     borderopacity="0.25"
     inkscape:showpageshadow="2"
     inkscape:pageopacity="0.0"
     inkscape:pagecheckerboard="0"
     inkscape:deskcolor="#d1d1d1"
     inkscape:document-units="mm"
     inkscape:zoom="2.8150954"
     inkscape:cx="369.25924"
     inkscape:cy="673.15658"
     inkscape:window-width="1920"
     inkscape:window-height="1012"
     inkscape:window-x="0"
     inkscape:window-y="0"
     inkscape:window-maximized="1"
     inkscape:current-layer="layer1"><inkscape:page
       x="0"
       y="0"
       width="59.346828"
       height="63.89373"
       id="page2"
       margin="0"
       bleed="0" /></sodipodi:namedview><defs
     id="defs1"><inkscape:path-effect
       effect="spiro"
       id="path-effect28"
       is_visible="true"
       lpeversion="1" /><inkscape:path-effect
       effect="spiro"
       id="path-effect3"
       is_visible="true"
       lpeversion="1" /></defs><g
     inkscape:label="Layer 1"
     inkscape:groupmode="layer"
     id="layer1"
     style="opacity:1"><path
       id="path43"
       style="opacity:1;fill:#994fff;fill-opacity:1;stroke:#ffffff;stroke-width:2.5;stroke-linecap:round;stroke-linejoin:round;stroke-miterlimit:7.5;stroke-dasharray:none;stroke-opacity:1;paint-order:stroke fill markers"
       d="m 16.294897,1.2501223 a 0.750075,0.750075 0 0 0 -0.555522,0.26045 c -1.22017,1.41724 -1.87634,2.90445 -1.954919,4.40645 -0.07208,1.37775 0.339605,2.73163 1.115177,4.02301 -2.122699,4.9211297 -2.912939,8.8884497 -2.793628,11.9398397 -0.218529,-0.09493 -0.447133,-0.17462 -0.685746,-0.23823 -0.02396,-0.30682 -0.08675,-0.60777 -0.1788,-0.89452 -0.476347,-1.48387 -1.6509979,-2.69947 -2.8964639,-3.28558 -0.618223,-0.29093 -1.294976,-0.46338 -1.982308,-0.51367 -0.687333,-0.0503 -1.384722,0.02197 -2.044837,0.22273 -1.3202309,0.4015 -2.5119169,1.39023 -2.9161009,2.92385 -0.54983105,2.08627 0.40635,3.9867 1.997811,4.96094 0.4041089,0.24738 0.8479539,0.44125 1.3187829,0.57516 -0.266144,1.93887 0.465789,3.73718 1.759582,4.88187 1.060937,0.93867 2.514805,1.43559 4.0447139,1.26039 1.120544,0.82623 2.291531,1.60362 3.573943,2.2009 -0.787924,2.04307 -1.248804,3.98961 -1.403532,5.81618 a 0.75,0.75 0 0 0 -0.03307,0.46767 c -0.07529,1.32934 0.01423,2.59244 0.260966,3.78013 0.607028,2.92202 2.178987,5.36501 4.483964,7.14065 -0.310246,2.17517 -0.975684,3.5802 -1.329635,4.78937 -1.511402,0.61082 -2.519249,1.96698 -2.31252,3.45095 0.23241,1.66833 1.89942,3.09833 4.792989,3.221 a 0.750075,0.750075 0 0 0 0.01395,0 c 2.799478,0.07 4.90618,-0.71221 6.12469,-2.38487 1.086339,-1.49123 1.424513,-3.53502 1.243335,-6.05389 0.860978,0.05857 1.728917,0.05849 2.590023,-5.2e-4 -0.180929,2.51912 0.158467,4.56307 1.244885,6.05441 1.218509,1.67266 3.32573,2.45486 6.125212,2.38487 a 0.750075,0.750075 0 0 0 0.01343,0 c 2.89357,-0.12267 4.55851,-1.55267 4.79092,-3.221 0.20674,-1.48409 -0.80038,-2.84022 -2.312,-3.45095 -0.3196,-1.20263 -0.99392,-2.48444 -1.33067,-4.81314 2.49945,-1.93785 3.98306,-4.56067 4.45554,-7.49153 0.47299,-2.93395 -0.03925,-6.16155 -1.4273,-9.39116 1.53039,-0.4847 2.86543,-1.09448 3.99924,-1.83968 2.17704,-0.04896 4.31893,-0.82795 5.84977,-1.96836 0.79287,-0.59064 1.4311,-1.28228 1.78697,-2.08411 0.2297,-0.51752 0.32362,-1.09757 0.24133,-1.6676 0.44048,-0.12717 0.85449,-0.29717 1.23145,-0.50643 0.84419,-0.46863 1.5277,-1.17311 1.77354,-2.08979 0.18785,-0.70046 0.08916,-1.47641 -0.28629,-2.24276 0.32269,-0.21289 0.62977,-0.45051 0.91726,-0.7121 1.53244,-1.39439 2.44727,-3.40531 2.4939,-5.47667 0.0485,-2.15449 -0.84685,-4.28143 -2.42207,-5.7520997 -1.57522,-1.47068 -3.76,-2.21925 -5.9061,-2.02313 -1.89545,0.17321 -3.69234,1.07211 -4.96869,2.4840797 -1.27634,1.41198 -1.98937,3.29023 -1.97094,5.19348 0.01482,1.53318 0.50379,3.04091 1.37459,4.29432 -0.38051,0.21678 -0.68571,0.50558 -0.88987,0.85989 -0.3281,0.56944 -0.36129,1.23403 -0.20515,1.86087 -0.52103,0.10723 -0.98106,0.32499 -1.36684,0.60978 0.05032,-0.3553 0.08608,-0.72548 0.10697,-1.10949 0.16758,-3.08051 -0.60712,-7.12123 -2.78226,-12.1635997 0.77511,-1.29082 1.18824,-2.64437 1.11621,-4.02146 -0.0786,-1.502 -0.73475,-2.98921 -1.95492,-4.40645 a 0.750075,0.750075 0 0 0 -0.95705,-0.15244 c -1.47071,0.89028 -2.64267,1.87762 -3.51968,2.89801 -1.795956,-1.4542 -4.277476,-2.12421 -6.743775,-2.12028 v -5.2e-4 c -2.47158,0.0036 -4.965589,0.68302 -6.785632,2.127 -0.877129,-1.02259 -2.04961,-2.01213 -3.523299,-2.90421 a 0.750075,0.750075 0 0 0 -0.401526,-0.10801 z" /><g
       id="g42"
       style="display:inline"
       transform="translate(-65.803451,-142.87028)"><path
         style="opacity:1;fill:#994fff;fill-opacity:1;stroke:none;stroke-width:1.5;stroke-linecap:round;stroke-linejoin:round;stroke-miterlimit:7.5;stroke-opacity:1;paint-order:stroke fill markers"
         d="m 106.72263,181.9125 c -0.61875,-1.7231 -1.76227,-5.26329 -1.76227,-5.26329 l 4.86385,-2.09122 -0.25847,-3.33655 -2.81962,-3.38355 -1.4803,1.90325 -2.53766,1.5038 -1.31582,-0.37595 -1.19834,2.11471 -4.464396,1.40981 -5.451266,0.0235 -3.571521,-1.01037 -1.668274,-1.03386 c 0,0 -0.751899,-1.50379 -0.845887,-1.50379 -0.09399,0 -2.138211,0.21147 -2.138211,0.21147 l -1.997231,-0.82239 -0.892879,2.44367 c 0,0 -2.725634,1.10435 -2.631646,1.15134 0.09399,0.047 2.255697,1.64478 2.255697,1.64478 l 1.879745,1.01037 -1.456803,6.15617 2.490665,-1.73877 1.198338,3.82999 2.749129,2.56115 3.054588,0.0235 2.796125,-1.66827 1.362816,-1.87975 1.973736,2.63165 3.336549,1.26883 3.524526,-0.91638 2.2557,-2.74913 0.77539,-2.77263 z"
         id="path33" /><path
         id="path26"
         style="opacity:1;fill:#994fff;fill-opacity:1;stroke:none;stroke-width:1.5;stroke-linecap:round;stroke-linejoin:round;stroke-miterlimit:7.5;paint-order:stroke fill markers"
         d="m 82.111267,144.87074 c -1.81385,2.22308 -2.666859,4.68367 -0.561723,7.87549 2.895116,-0.56875 4.045268,-2.2812 4.378544,-4.5284 0,0 -2.073286,-2.55596 -3.816821,-3.34709 z m 21.287073,0 c -1.74354,0.79113 -3.816821,3.34709 -3.816821,3.34709 0.333276,2.2472 1.483431,3.95965 4.378541,4.5284 2.10514,-3.19182 1.25213,-5.65241 -0.56172,-7.87549 z" /><path
         style="opacity:1;fill:#fffcce;fill-opacity:1;stroke:none;stroke-width:1.5;stroke-linecap:round;stroke-linejoin:round;stroke-miterlimit:7.5;stroke-opacity:1;paint-order:stroke fill markers"
         d="m 106.69913,167.8144 3.12508,-2.09122 2.37318,2.74913 5.02832,0.58742 -0.61092,2.77263 -2.81962,1.87974 -4.55838,1.01037 0.46993,-2.63165 -1.15134,-2.74913 z"
         id="path36" /><path
         style="opacity:1;fill:#ffffff;fill-opacity:1;stroke:none;stroke-width:1.4;stroke-linecap:round;stroke-linejoin:round;stroke-miterlimit:7.5;stroke-dasharray:none;stroke-opacity:1;paint-order:stroke fill markers"
         d="m 83.937826,193.86115 4.35307,2.02701 2.691593,0.5649 -0.232608,4.054 -1.694707,3.4891 -4.35307,0.86397 -3.655248,-0.93042 -0.897199,-2.09347 1.096576,-2.06023 1.860854,-0.66459 0.431983,-3.02389 z"
         id="path39" /><path
         style="opacity:1;fill:#ffffff;fill-opacity:1;stroke:none;stroke-width:1.4;stroke-linecap:round;stroke-linejoin:round;stroke-miterlimit:7.5;stroke-dasharray:none;stroke-opacity:1;paint-order:stroke fill markers"
         d="m 94.986648,196.2703 4.452758,-1.12981 2.608524,-1.37902 1.54517,5.43302 1.89408,1.11319 0.3323,2.37592 -1.47872,1.72793 -4.701975,0.36553 c 0,0 -3.090349,-1.52856 -3.223265,-1.61164 -0.132919,-0.0831 -1.49533,-3.98754 -1.49533,-3.98754 z"
         id="path40" /><path
         style="opacity:1;fill:none;stroke:#fbc4f4;stroke-width:1.5;stroke-linecap:round;stroke-linejoin:round;stroke-miterlimit:7.5;stroke-opacity:1;paint-order:stroke fill markers"
         d="m 95.165195,196.21723 c -0.660375,5.71871 1.200481,8.67614 6.517205,8.54321 5.35936,-0.22719 4.90314,-4.80545 1.86085,-5.50469 -0.25175,-1.12086 -1.13604,-2.68833 -1.48092,-5.56669"
         id="path19"
         sodipodi:nodetypes="cccc" /><path
         style="opacity:1;fill:#fffcce;fill-opacity:1;stroke:none;stroke-width:1.5;stroke-linecap:round;stroke-linejoin:round;stroke-miterlimit:7.5;stroke-opacity:1;paint-order:stroke fill markers"
         d="m 79.724762,180.31471 -0.845886,4.08845 1.221835,4.58189 2.796122,4.11194 4.67587,2.51416 6.203167,0.68141 5.615742,-1.01036 3.876978,-2.44367 2.9841,-4.32342 0.65791,-5.02832 -0.32895,-1.66828 -1.80926,-0.89288 -0.91638,3.38354 c 0,0 -1.85625,2.63165 -2.13821,2.56116 -0.28196,-0.0705 -3.595016,0.7284 -3.595016,0.7284 l -2.937105,-1.08085 -2.255695,-2.2322 -2.396678,2.39668 -2.984098,0.75189 -3.266061,-0.86938 -2.185205,-3.78299 -0.258466,-1.73877 -1.85625,1.22184 z"
         id="path34" /><path
         style="opacity:1;fill:#3780f0;fill-opacity:1;stroke:none;stroke-width:1.5;stroke-linecap:round;stroke-miterlimit:7.5;paint-order:stroke fill markers"
         d="m 115.7385,151.65963 c 1.92488,-0.1759 3.91231,0.50479 5.32516,1.82387 1.41285,1.31908 2.22821,3.25516 2.18471,5.18757 -0.0418,1.85855 -0.87463,3.68636 -2.24963,4.93748 -1.375,1.25113 -3.27309,1.90818 -5.12732,1.77489 -1.70464,-0.12254 -3.35316,-0.90689 -4.52356,-2.15229 -1.17039,-1.2454 -1.85097,-2.9394 -1.86752,-4.64836 -0.0165,-1.70896 0.63109,-3.41583 1.77714,-4.68366 1.14605,-1.26783 2.77907,-2.08397 4.48102,-2.2395 z"
         id="path27"
         inkscape:path-effect="#path-effect28"
         inkscape:original-d="m 115.7385,151.65963 c -0.0443,-4.5746 5.01766,4.70752 7.50987,7.01144 2.49222,2.30391 -4.90689,4.46383 -7.37695,6.71237 -2.47007,2.24853 -0.0886,-9.14921 -0.13292,-13.72381 z"
         transform="translate(-0.09968863,-0.13291817)"
         sodipodi:nodetypes="ssss" /><path
         style="opacity:1;fill:#ffffff;fill-opacity:1;stroke:none;stroke-width:1.4;stroke-linecap:round;stroke-linejoin:round;stroke-miterlimit:7.5;stroke-dasharray:none;stroke-opacity:1;paint-order:stroke fill markers"
         d="m 111.21052,162.88006 -1.69177,1.38632 0.7284,2.53765 2.77263,2.02073 4.04145,0.21147 2.65514,-1.26883 0.44645,-1.71527 -0.56393,-1.38631 -3.90047,0.7519 -3.31306,-1.38631 z"
         id="path41" /><path
         style="opacity:1;fill:none;stroke:#fbc4f4;stroke-width:1.5;stroke-linecap:round;stroke-miterlimit:7.5;stroke-opacity:1;paint-order:stroke fill markers"
         d="m 110.01776,166.16979 c -1.61737,-0.19037 -2.71937,0.9215 -2.9854,1.83878 2.10453,1.75009 3.00173,3.91001 2.62513,6.54622 4.14767,0.008 8.49737,-3.02142 7.14894,-5.53647"
         id="path5"
         sodipodi:nodetypes="cccc" /><path
         style="fill:none;stroke:#fbc4f4;stroke-width:1.5;stroke-linecap:round;stroke-linejoin:round;stroke-miterlimit:7.5;stroke-dasharray:none;stroke-opacity:1;paint-order:stroke fill markers"
         d="m 79.190289,182.94454 2.493712,-2.21007 c 0.717213,2.09109 1.327588,5.88684 4.895063,6.53812 4.264049,0.77843 6.372818,-3.54532 6.372818,-3.54532 0,0 1.842066,4.21878 6.00338,3.77552 3.616168,-0.38518 5.295858,-3.32248 5.772488,-6.49205 l 1.80448,1.43369"
         id="path1"
         sodipodi:nodetypes="ccscscc" /><path
         style="opacity:1;fill:none;stroke:#fbc4f4;stroke-width:1.5;stroke-linecap:round;stroke-linejoin:round;stroke-miterlimit:7.5;stroke-opacity:1;paint-order:stroke fill markers"
         d="m 90.908234,196.21723 c 0.66038,5.71871 -1.20048,8.67614 -6.517201,8.54321 -5.35936,-0.22719 -4.90314,-4.80545 -1.86085,-5.50469 0.312314,-1.17478 1.175297,-2.88558 1.48092,-5.56669"
         id="path21"
         sodipodi:nodetypes="cccc" /><path
         style="fill:none;stroke:#fbc4f4;stroke-width:1.5;stroke-linecap:round;stroke-miterlimit:7.5;stroke-opacity:1;paint-order:stroke fill markers"
         d="m 81.317437,175.4277 c -3.983285,8.58642 -2.119903,15.36212 3.446211,18.78279 4.52159,2.77875 11.672908,2.85092 16.291182,0.13415 6.38762,-3.75762 7.22336,-11.20453 3.35671,-18.55919"
         id="path2"
         sodipodi:nodetypes="cssc" /><path
         style="fill:none;stroke:#fbc4f4;stroke-width:1.5;stroke-linecap:round;stroke-miterlimit:7.5;stroke-opacity:1;paint-order:stroke fill markers"
         d="m 111.24818,163.09823 c -3.01956,0.55727 -1.67345,4.03608 1.69903,5.44201 4.01326,1.67305 8.98758,-0.63911 6.50676,-4.06126"
         id="path4"
         sodipodi:nodetypes="csc" /><path
         style="opacity:1;fill:#ffffff;fill-opacity:1;stroke:none;stroke-width:1.4;stroke-linecap:round;stroke-linejoin:round;stroke-miterlimit:7.5;stroke-dasharray:none;stroke-opacity:1;paint-order:stroke fill markers"
         d="m 81.296078,152.65652 3.622018,-1.41226 1.11319,-3.20665 3.206652,-1.77778 2.957428,-0.58151 3.688479,0.41537 3.804783,1.87746 0.448602,2.25961 1.81101,2.01039 2.1433,0.59813 1.96055,5.34996 1.0135,5.23365 -0.61475,4.7186 -1.82762,2.40914 -3.45588,0.51506 -0.33229,-3.9377 -3.389414,2.24299 -4.901359,0.53167 -5.582563,-1.04673 -2.176536,-1.26272 -0.647975,3.28972 -1.977158,0.29907 -1.744551,-0.79751 -0.780894,-3.23988 -1.129805,-1.14642 0.249222,-4.45276 1.295953,-5.00104 z"
         id="path42" /><path
         style="fill:none;stroke:#fbc4f4;stroke-width:1.5;stroke-linecap:round;stroke-miterlimit:7.5;stroke-opacity:1;paint-order:stroke fill markers"
         d="m 104.85248,176.6673 c 1.91599,-0.52695 3.51765,-1.23112 4.805,-2.11251"
         id="path6"
         sodipodi:nodetypes="cc" /><path
         style="display:inline;fill:none;stroke:#994fff;stroke-width:1.5;stroke-linecap:round;stroke-miterlimit:7.5;stroke-opacity:1;paint-order:stroke fill markers"
         d="m 94.878256,161.86247 c 1.297404,-2.77365 5.389614,-1.95551 5.368694,0.83424"
         id="path7"
         sodipodi:nodetypes="cc" /><path
         style="opacity:1;fill:#ffffff;fill-opacity:1;stroke:none;stroke-width:1.4;stroke-linecap:round;stroke-linejoin:round;stroke-miterlimit:7.5;stroke-dasharray:none;stroke-opacity:1;paint-order:stroke fill markers"
         d="m 73.639081,167.7909 -2.185204,0.25846 -2.796125,-1.48029 -1.010364,-2.42018 1.315823,-2.89011 3.289557,-0.70491 2.561156,1.01037 1.973733,3.47753 -1.315823,1.85625 z"
         id="path38" /><path
         style="opacity:1;fill:#fffcce;fill-opacity:1;stroke:none;stroke-width:1.5;stroke-linecap:round;stroke-linejoin:round;stroke-miterlimit:7.5;stroke-opacity:1;paint-order:stroke fill markers"
         d="m 84.518115,167.62642 4.628878,1.97374 5.286787,0.14098 4.135443,-0.7284 2.067717,-1.57429 0.7754,2.72563 -0.7754,2.44367 -3.38354,1.5038 c 0,0 -4.182435,0.54042 -4.346914,0.46993 -0.164478,-0.0705 -4.534889,-0.18797 -4.534889,-0.18797 l -2.631646,-1.38631 -1.668275,-1.90325 z"
         id="path35" /><path
         style="display:inline;fill:none;stroke:#994fff;stroke-width:1.5;stroke-linecap:round;stroke-miterlimit:7.5;stroke-opacity:1;paint-order:stroke fill markers"
         d="m 85.219391,162.57901 c 0.214073,-2.87438 4.547638,-3.48406 5.378735,-0.76685"
         id="path10"
         sodipodi:nodetypes="cc" /><path
         style="fill:none;stroke:#fbc4f4;stroke-width:1.5;stroke-linecap:round;stroke-miterlimit:7.5;stroke-opacity:1;paint-order:stroke fill markers"
         d="m 89.109956,165.94062 c 1.155512,2.46314 6.151451,2.34367 7.001502,0.0124"
         id="path11"
         sodipodi:nodetypes="cc" /><path
         style="opacity:1;fill:#49b9f4;fill-opacity:1;stroke:none;stroke-width:1.5;stroke-linecap:round;stroke-linejoin:round;stroke-miterlimit:7.5;stroke-opacity:1;paint-order:stroke fill markers"
         d="m 123.0172,156.73856 c -1.71196,-1.18973 -1.97831,0.64157 -3.20683,0.78423 -0.91011,0.10568 -1.19834,-0.65793 -1.92674,-0.37596 -0.65774,0.25462 -0.93712,1.15412 -1.76227,0.98687 -1.75367,-0.35546 -0.9416,-5.53675 2.04264,-6.36075 l -3.31492,-0.11743 -3.07464,1.44986 -0.51692,3.54802 2.42017,5.73323 8.95229,-1.66828 z"
         id="path30"
         sodipodi:nodetypes="csssccccccc" /><path
         style="opacity:1;fill:#76eec6;fill-opacity:1;stroke:none;stroke-width:1.5;stroke-linecap:round;stroke-linejoin:round;stroke-miterlimit:7.5;stroke-opacity:1;paint-order:stroke fill markers"
         d="m 111.28101,156.98236 c 1.31582,-2.84312 3.09262,-4.07686 3.38354,-3.736 0.45747,0.53597 -1.13154,0.67896 -0.84588,3.92397 0.15076,1.7125 1.28043,2.8333 2.72563,2.86661 2.17828,0.0502 4.67813,-1.92523 6.43814,0.28196 l -1.03387,2.20871 -4.55838,1.12785 -4.76986,-1.45681 -1.76226,-4.06495 -0.23497,-3.43054 z"
         id="path29"
         sodipodi:nodetypes="csssccccccc" /><path
         style="opacity:1;fill:#e7f5f2;fill-opacity:1;stroke:none;stroke-width:1.5;stroke-linecap:round;stroke-linejoin:round;stroke-miterlimit:7.5;stroke-opacity:1;paint-order:stroke fill markers"
         d="m 113.9441,152.1913 c -3.05403,3.5034 -2.21511,7.19539 -0.0877,9.02746 1.96392,1.69123 5.32379,2.08068 8.95995,-0.38777 l -2.45899,3.12357 -3.85462,1.62825 -3.85463,-1.26272 -2.65836,-2.95743 -0.66459,-3.55556 1.03011,-2.95743 1.76117,-2.29284 z"
         id="path28"
         sodipodi:nodetypes="csccccccccc" /><path
         style="fill:none;stroke:#fbc4f4;stroke-width:1.5;stroke-linecap:round;stroke-linejoin:round;stroke-miterlimit:7.5;stroke-opacity:1;paint-order:stroke fill markers"
         d="m 85.927924,148.21804 c 3.309131,-3.26757 10.472888,-3.3008 13.71556,0"
         id="path14"
         sodipodi:nodetypes="cc" /><path
         style="fill:none;stroke:#fbc4f4;stroke-width:1.5;stroke-linecap:round;stroke-linejoin:round;stroke-miterlimit:7.5;stroke-opacity:1;paint-order:stroke fill markers"
         d="m 81.549453,152.74604 c -4.526827,10.275 -3.117017,16.2432 -0.109423,17.93497 1.484147,0.83483 2.773677,-0.0367 2.773677,-0.0367"
         id="path15"
         sodipodi:nodetypes="csc" /><path
         style="fill:none;stroke:#fbc4f4;stroke-width:1.5;stroke-linecap:round;stroke-linejoin:round;stroke-miterlimit:7.5;stroke-opacity:1;paint-order:stroke fill markers"
         d="m 104.02196,152.74604 c 4.52683,10.275 3.11702,16.2432 0.10943,17.93497 -1.48415,0.83483 -2.77368,-0.0367 -2.77368,-0.0367"
         id="path16"
         sodipodi:nodetypes="csc" /><path
         style="opacity:1;fill:none;stroke:#fbc4f4;stroke-width:1.5;stroke-linecap:round;stroke-miterlimit:7.5;stroke-opacity:1;paint-order:stroke fill markers"
         d="m 84.900198,167.38671 c -2.159334,3.69203 0.146344,7.11659 8.109292,7.11659 7.96295,0 9.46623,-3.66727 7.61824,-7.22283"
         id="path9"
         sodipodi:nodetypes="czc" /><path
         style="opacity:1;fill:none;stroke:#fbc4f4;stroke-width:1.5;stroke-linecap:round;stroke-miterlimit:7.5;stroke-opacity:1;paint-order:stroke fill markers"
         d="m 82.269643,161.24588 c -0.368537,5.25523 4.309254,8.63166 10.671114,8.63166 6.36186,0 10.185723,-3.42508 10.157643,-8.94449"
         id="path8"
         sodipodi:nodetypes="czc" /><path
         style="opacity:1;fill:#fffcce;fill-opacity:1;stroke:none;stroke-width:1.5;stroke-linecap:round;stroke-linejoin:round;stroke-miterlimit:7.5;stroke-opacity:1;paint-order:stroke fill markers"
         d="m 76.364715,165.18275 2.420173,0.96337 1.315823,1.85625 0.281962,2.58465 -1.433307,2.13821 -2.302689,1.26883 -2.655144,-0.047 -1.997229,-2.06772 -0.822391,-1.90325 0.187976,-1.90324 3.195569,-0.54043 z"
         id="path37" /><path
         style="opacity:1;fill:none;stroke:#994fff;stroke-width:1.5;stroke-linecap:round;stroke-miterlimit:7.5;stroke-opacity:1;paint-order:stroke fill markers"
         d="m 115.7385,151.65963 c 1.92488,-0.1759 3.91231,0.50479 5.32516,1.82387 1.41285,1.31908 2.22821,3.25516 2.18471,5.18757 -0.0418,1.85855 -0.87463,3.68636 -2.24963,4.93748 -1.375,1.25113 -3.27309,1.90818 -5.12732,1.77489 -1.70464,-0.12254 -3.35316,-0.90689 -4.52356,-2.15229 -1.17039,-1.2454 -1.85097,-2.9394 -1.86752,-4.64836 -0.0165,-1.70896 0.63109,-3.41583 1.77714,-4.68366 1.14605,-1.26783 2.77907,-2.08397 4.48102,-2.2395 z"
         id="path3"
         inkscape:path-effect="#path-effect3"
         inkscape:original-d="m 115.7385,151.65963 c -0.0443,-4.5746 5.01766,4.70752 7.50987,7.01144 2.49222,2.30391 -4.90689,4.46383 -7.37695,6.71237 -2.47007,2.24853 -0.0886,-9.14921 -0.13292,-13.72381 z"
         transform="translate(-0.09968863,-0.13291817)" /><path
         style="fill:none;stroke:#fbc4f4;stroke-width:1.5;stroke-linecap:round;stroke-linejoin:round;stroke-miterlimit:7.5;stroke-opacity:1;paint-order:stroke fill markers"
         d="m 103.54325,199.25574 c -1.19626,-0.28625 -2.00248,0.009 -2.5244,0.34488"
         id="path20"
         sodipodi:nodetypes="cc" /><path
         style="opacity:1;fill:none;stroke:#fbc4f4;stroke-width:1.5;stroke-linecap:round;stroke-linejoin:round;stroke-miterlimit:7.5;stroke-opacity:1;paint-order:stroke fill markers"
         d="m 85.927926,148.21804 c -0.251555,2.56806 -1.738737,4.07186 -4.378473,4.528 -1.705306,-2.59747 -1.717428,-5.22816 0.561765,-7.87547 1.708673,1.03433 2.975371,2.19445 3.816708,3.34747 z"
         id="path12"
         sodipodi:nodetypes="cccc" /><path
         style="opacity:1;fill:none;stroke:#fbc4f4;stroke-width:1.5;stroke-linecap:round;stroke-linejoin:round;stroke-miterlimit:7.5;stroke-opacity:1;paint-order:stroke fill markers"
         d="m 99.643486,148.21804 c 0.251555,2.56806 1.738734,4.07186 4.378474,4.528 1.7053,-2.59747 1.71743,-5.22816 -0.56177,-7.87547 -1.70867,1.03433 -2.97537,2.19445 -3.816704,3.34747 z"
         id="path13"
         sodipodi:nodetypes="cccc" /><path
         style="fill:none;stroke:#fbc4f4;stroke-width:1.5;stroke-linecap:round;stroke-linejoin:round;stroke-miterlimit:7.5;stroke-opacity:1;paint-order:stroke fill markers"
         d="m 82.530183,199.25574 c 1.19626,-0.28625 2.00248,0.009 2.5244,0.34488"
         id="path22"
         sodipodi:nodetypes="cc" /><path
         style="fill:none;stroke:#fbc4f4;stroke-width:1.5;stroke-linecap:round;stroke-linejoin:round;stroke-miterlimit:7.5;stroke-opacity:1;paint-order:stroke fill markers"
         d="m 71.404413,167.92016 c -1.076022,3.92975 2.614746,7.29331 6.36942,5.53727 3.966975,-1.85532 2.829642,-7.75026 -1.253021,-8.32365"
         id="path24"
         sodipodi:nodetypes="csc" /><path
         style="opacity:1;fill:none;stroke:#fbc4f4;stroke-width:1.5;stroke-linecap:round;stroke-linejoin:round;stroke-miterlimit:7.5;stroke-opacity:1;paint-order:stroke fill markers"
         d="m 73.828929,161.01083 c 2.045808,0.96274 4.337412,4.49977 0.86751,6.30391 -3.638734,1.89193 -7.709356,-0.58363 -6.767089,-4.15894 0.669408,-2.53998 3.789355,-3.13803 5.899579,-2.14497 z"
         id="path23"
         sodipodi:nodetypes="ssss" /><path
         style="fill:none;stroke:#fbc4f4;stroke-width:1.5;stroke-linecap:round;stroke-linejoin:round;stroke-miterlimit:7.5;stroke-opacity:1;paint-order:stroke fill markers"
         d="m 80.868329,176.44698 c -1.550746,-0.62042 -2.954893,-1.55424 -4.319126,-2.57339"
         id="path25"
         sodipodi:nodetypes="cc" /><path
         id="path31"
         style="fill:#e7f5f2;fill-opacity:1;stroke:none;stroke-width:1.31084;stroke-linecap:round;stroke-linejoin:round;stroke-miterlimit:7.5;stroke-opacity:1;paint-order:stroke fill markers"
         d="m 118.44775,153.2816 -1.06938,1.05718 1.99741,1.24551 0.59927,-1.17506 z m 0.92803,2.30269 -0.39379,0.75326 1.00345,0.72345 0.70223,-0.67829 z"
         transform="matrix(1.1443075,0,0,1.1443075,-16.938589,-22.119684)" /></g></g></svg>
